<svg xmlns="http://www.w3.org/2000/svg" xmlns:xlink="http://www.w3.org/1999/xlink" viewBox="0 0 3.5 2.63"><defs><style>.cls-1{fill:url(#linear-gradient);}.cls-2{fill:url(#linear-gradient-2);}.cls-3{fill:url(#linear-gradient-3);}.cls-4{fill:url(#linear-gradient-4);}.cls-5{fill:url(#linear-gradient-5);}.cls-6{fill:url(#linear-gradient-6);}.cls-7{fill:url(#linear-gradient-7);}.cls-8{fill:url(#linear-gradient-8);}.cls-9{fill:url(#linear-gradient-9);}.cls-10{fill:url(#linear-gradient-10);}.cls-11{fill:url(#linear-gradient-11);}.cls-12{fill:url(#linear-gradient-12);}</style><linearGradient id="linear-gradient" x1="1.75" y1="-2.73" x2="1.75" y2="1.39" gradientTransform="translate(0.2 1.37) rotate(-45)" gradientUnits="userSpaceOnUse"><stop offset="0" stop-color="#f06724"/><stop offset="0.52" stop-color="#cb198a"/><stop offset="0.77" stop-color="#613f98"/></linearGradient><linearGradient id="linear-gradient-2" x1="14251.32" y1="3379.55" x2="14251.21" y2="3375.51" gradientTransform="translate(12466.99 -7688.62) rotate(135)" gradientUnits="userSpaceOnUse"><stop offset="0" stop-color="#f06724"/><stop offset="0.31" stop-color="#cb198a"/><stop offset="0.67" stop-color="#a52f8f"/><stop offset="1" stop-color="#613f98"/></linearGradient><linearGradient id="linear-gradient-3" x1="2.62" y1="-0.52" x2="2.62" y2="2.49" gradientTransform="translate(-0.16 2.24) rotate(-45)" gradientUnits="userSpaceOnUse"><stop offset="0" stop-color="#f06724"/><stop offset="0.52" stop-color="#cb198a"/><stop offset="1" stop-color="#613f98"/></linearGradient><linearGradient id="linear-gradient-4" x1="3.06" y1="0.87" x2="3.06" y2="4.14" gradientTransform="translate(-0.34 2.68) rotate(-45)" gradientUnits="userSpaceOnUse"><stop offset="0" stop-color="#f06724"/><stop offset="0.18" stop-color="#ec6230"/><stop offset="0.67" stop-color="#cb198a"/><stop offset="1" stop-color="#613f98"/></linearGradient><linearGradient id="linear-gradient-5" x1="14252.19" y1="3379.53" x2="14252.08" y2="3375.49" gradientTransform="translate(12466.73 -7689.24) rotate(135)" xlink:href="#linear-gradient-2"/><linearGradient id="linear-gradient-6" x1="1.75" y1="-0.52" x2="1.75" y2="2.49" gradientTransform="translate(-0.42 1.62) rotate(-45)" xlink:href="#linear-gradient-3"/><linearGradient id="linear-gradient-7" x1="2.19" y1="0.87" x2="2.19" y2="4.14" gradientTransform="translate(-0.6 2.06) rotate(-45)" xlink:href="#linear-gradient-4"/><linearGradient id="linear-gradient-8" x1="14252.55" y1="3387.6" x2="14252.55" y2="3388.44" gradientTransform="translate(-12472.99 7684.47) rotate(-45)" gradientUnits="userSpaceOnUse"><stop offset="0" stop-color="#f06724"/><stop offset="1" stop-color="#f7943f"/></linearGradient><linearGradient id="linear-gradient-9" x1="0.87" y1="-0.52" x2="0.87" y2="2.49" gradientTransform="translate(-0.67 1) rotate(-45)" xlink:href="#linear-gradient-3"/><linearGradient id="linear-gradient-10" x1="1.31" y1="0.87" x2="1.31" y2="4.14" gradientTransform="translate(-0.85 1.44) rotate(-45)" xlink:href="#linear-gradient-4"/><linearGradient id="linear-gradient-11" x1="0.44" y1="0.87" x2="0.44" y2="4.14" gradientTransform="translate(-1.11 0.82) rotate(-45)" xlink:href="#linear-gradient-4"/><linearGradient id="linear-gradient-12" x1="14250.8" y1="3387.6" x2="14250.8" y2="3388.44" gradientTransform="translate(-12470.01 7683.23) rotate(-45)" xlink:href="#linear-gradient-8"/></defs><g id="Layer_2" data-name="Layer 2"><g id="Layer_1-2" data-name="Layer 1"><rect class="cls-1" x="1.44" y="0.13" width="0.62" height="0.62" transform="translate(0.82 -1.11) rotate(45)"/><rect class="cls-2" x="1.88" y="0.57" width="0.62" height="0.62" transform="translate(1.26 -1.29) rotate(45)"/><rect class="cls-3" x="2.32" y="1" width="0.62" height="0.62" transform="translate(1.7 -1.47) rotate(45)"/><rect class="cls-4" x="2.75" y="1.44" width="0.62" height="0.62" transform="translate(2.13 -1.65) rotate(45)"/><rect class="cls-5" x="1" y="0.57" width="0.62" height="0.62" transform="translate(1 -0.67) rotate(45)"/><rect class="cls-6" x="1.44" y="1" width="0.62" height="0.62" transform="translate(1.44 -0.85) rotate(45)"/><rect class="cls-7" x="1.88" y="1.44" width="0.62" height="0.62" transform="translate(1.88 -1.03) rotate(45)"/><rect class="cls-8" x="0.57" y="1.88" width="0.62" height="0.62" transform="translate(-0.05 4.35) rotate(-135)"/><rect class="cls-9" x="0.57" y="1" width="0.62" height="0.62" transform="translate(1.18 -0.23) rotate(45)"/><rect class="cls-10" x="1" y="1.44" width="0.62" height="0.62" transform="translate(1.62 -0.42) rotate(45)"/><rect class="cls-11" x="0.13" y="1.44" width="0.62" height="0.62" transform="translate(1.37 0.2) rotate(45)"/><rect class="cls-12" x="2.32" y="1.88" width="0.62" height="0.62" transform="translate(2.93 5.59) rotate(-135)"/></g></g></svg>